PathFileType	4	(X/Y/Z)	C:\Users\Basilio\Documents\Thesis Gigler\squatting_fais\c3dfiles\039\SLS_pre_front1\markers_experimental.trc
DataRate	CameraRate	NumFrames	NumMarkers	Units	OrigDataRate	OrigDataStartFrame	OrigNumFrames
200.000000	200.000000	4	63	mm	200.000000	175	1405
Frame#	Time	FHD			RBHD			C7			T10			LSHO			LUUPA			LMUPA			LDUPA			LLEP			LMEP			LRAD			LUL			LRFIN			RSHO			RUPA1			RMUPA			RDUPA			RLEP			RMEP			RRAD			RUL			RUFIN			LASI			RASI			USACR			LSACR			RSACR			LTHI1			LTHI2			LTHI3			LTHI4			LLFC			LMFC			LTIB1			LTIB2			LTIB3			LTIB4			LLMAL			LMMAL			LHEE			LMT1			LMT2			LMT5			RTHI			RTHI2			RTHI3			RTHI4			RLFC			RMFC			RTIB1			RTIB2			RTIB3			RTIB4			RLMAL			RMMAL			RHEE			RMT1			RMT2			RMT5			LBHD			CLAV			*61			*62			
		X1	Y1	Z1	X2	Y2	Z2	X3	Y3	Z3	X4	Y4	Z4	X5	Y5	Z5	X6	Y6	Z6	X7	Y7	Z7	X8	Y8	Z8	X9	Y9	Z9	X10	Y10	Z10	X11	Y11	Z11	X12	Y12	Z12	X13	Y13	Z13	X14	Y14	Z14	X15	Y15	Z15	X16	Y16	Z16	X17	Y17	Z17	X18	Y18	Z18	X19	Y19	Z19	X20	Y20	Z20	X21	Y21	Z21	X22	Y22	Z22	X23	Y23	Z23	X24	Y24	Z24	X25	Y25	Z25	X26	Y26	Z26	X27	Y27	Z27	X28	Y28	Z28	X29	Y29	Z29	X30	Y30	Z30	X31	Y31	Z31	X32	Y32	Z32	X33	Y33	Z33	X34	Y34	Z34	X35	Y35	Z35	X36	Y36	Z36	X37	Y37	Z37	X38	Y38	Z38	X39	Y39	Z39	X40	Y40	Z40	X41	Y41	Z41	X42	Y42	Z42	X43	Y43	Z43	X44	Y44	Z44	X45	Y45	Z45	X46	Y46	Z46	X47	Y47	Z47	X48	Y48	Z48	X49	Y49	Z49	X50	Y50	Z50	X51	Y51	Z51	X52	Y52	Z52	X53	Y53	Z53	X54	Y54	Z54	X55	Y55	Z55	X56	Y56	Z56	X57	Y57	Z57	X58	Y58	Z58	X59	Y59	Z59	X60	Y60	Z60	X61	Y61	Z61	X62	Y62	Z62	X63	Y63	Z63	

176	0.875	-287.5226440429688	1674.622314453125	-622.2679443359376	-418.1294250488282	1650.018432617188	-603.2168579101564	-487.7046508789064	1483.792602539063	-687.2538452148439	-523.7559814453126	1178.05126953125	-721.2523193359376	-411.0704650878907	1499.19580078125	-848.6519165039065	-249.4598388671876	1468.978393554688	-964.701599121094	-225.9961242675782	1500.13671875	-933.686706542969	-180.4601440429688	1479.659545898438	-967.1223754882815	-113.9761962890625	1489.117065429688	-964.4558715820315	-107.4541625976563	1417.550903320313	-935.486755371094	167.9355926513672	1516.680908203125	-890.1658325195315	164.8650207519532	1528.941650390625	-965.5991210937502	248.3873901367188	1550.05224609375	-884.578308105469	-376.5514526367188	1483.723754882813	-534.4082031250001	-210.9664611816407	1425.017211914063	-441.2059020996095	-186.1407318115235	1460.425170898438	-468.2829895019532	-142.3353729248047	1424.837768554688	-445.1357727050782	-80.66178131103517	1440.794067382813	-457.2717895507814	-73.82100677490236	1373.343505859375	-496.7738037109376	203.6150360107422	1494.6162109375	-543.0334472656251	204.805648803711	1486.140625	-466.2424621582032	291.5785827636719	1527.403564453125	-534.5909423828126	-359.5153808593751	1029.305297851563	-860.1857910156252	-345.4936218261719	998.086608886719	-638.3466796875001	-537.9991455078126	1032.55517578125	-736.4430541992189	-538.7160644531251	1003.033996582031	-767.8972167968751	-534.5773925781251	996.3403320312502	-709.0073242187501	-225.1280975341797	836.6522216796877	-942.2617187500002	-141.5749816894532	823.526550292969	-932.593688964844	-120.0912475585938	862.1716918945315	-914.3964843750002	-113.2865295410157	768.9675292968752	-925.0356445312502	-10.52331829071045	704.6584472656251	-920.066589355469	18.57000350952149	697.9152832031251	-804.6531982421877	143.2632293701172	660.1901245117189	-890.7814941406252	139.7492370605469	588.4472656250001	-940.2490234375002	168.8535308837891	617.3215332031251	-920.1817626953127	230.878646850586	566.8237304687501	-883.5139160156252	334.8082580566407	424.7856445312501	-925.600524902344	340.2627563476563	426.8584289550782	-838.349792480469	329.0926818847657	334.6033020019532	-894.685729980469	485.6696166992189	503.8069763183595	-844.381530761719	483.9875488281251	506.0254516601564	-887.0193481445315	475.2461547851564	463.1617126464845	-944.2191162109377	-286.9389343261719	732.4707641601564	-581.8023071289064	-227.8795166015626	701.0176391601564	-578.3139038085939	-200.0907440185547	717.2490234375001	-582.4843750000001	-217.6912384033204	616.5581665039064	-590.2205200195314	-201.7171173095704	492.0438537597657	-620.7486572265626	-164.7866516113282	497.8642883300782	-730.9230346679689	-225.4983520507813	293.6154785156251	-673.2904663085939	-328.3778991699219	260.0994262695313	-673.8080444335939	-288.3555908203126	237.4290008544922	-677.6582031250001	-286.7769775390626	192.9261474609376	-718.4728393554689	-381.8679809570313	124.0055770874024	-710.4434204101564	-346.4704284667969	145.8365173339844	-791.505310058594	-453.9964904785157	109.6403961181641	-768.3688964843752	-231.9163970947266	54.48749923706056	-776.432800292969	-236.8456420898438	54.75183868408205	-730.4089965820314	-293.4519653320313	38.50784301757813	-679.6380615234376	-445.6985473632814	1644.8994140625	-742.4295654296876	nan	nan	nan	nan	nan	nan	nan	nan	nan	
177	0.88	-287.5141296386719	1674.808715820313	-622.1199951171876	-418.1557006835939	1650.208740234375	-603.1619873046876	-487.7174072265626	1484.030151367188	-687.2075195312501	-523.8110351562501	1178.286987304688	-721.3134765625001	-411.182586669922	1499.490112304688	-848.5644531250002	-249.4790802001954	1469.3876953125	-964.7708740234377	-225.9266204833985	1500.590576171875	-933.606872558594	-180.3969116210938	1480.123413085938	-967.180603027344	-113.9925537109375	1489.555908203125	-964.5845947265627	-107.4738082885742	1418.049682617188	-935.589050292969	167.9989624023438	1517.0517578125	-890.2190551757815	164.8994140625	1529.340209960938	-965.5764770507815	248.3987731933594	1550.265380859375	-884.6273193359377	-376.5760192871094	1483.91259765625	-534.4356689453126	-210.8839569091797	1425.342163085938	-441.2472534179689	-186.1302795410157	1460.737060546875	-468.3399047851564	-142.331771850586	1425.138061523438	-445.1270751953126	-80.59429168701173	1441.05517578125	-457.3420715332032	-73.74899291992189	1373.618041992188	-496.7295837402345	203.5679779052735	1494.944702148438	-543.0523681640626	204.9218139648438	1486.461181640625	-466.3793334960939	291.6277465820313	1527.723999023438	-534.7326660156251	-359.4806823730469	1029.488403320313	-860.2935791015627	-345.0708312988282	998.5141601562502	-638.5013427734376	-538.4678955078126	1032.92626953125	-736.1558227539064	-538.6149902343751	1003.293395996094	-767.7980957031251	-534.4659423828126	996.569763183594	-708.9057006835939	-225.1477813720704	836.937683105469	-942.3616943359377	-141.6038208007813	823.8718261718752	-932.784606933594	-120.0656890869141	862.4580078125002	-914.6062622070315	-113.2367019653321	769.2802734375002	-925.2059326171877	-10.39578056335449	705.0880737304689	-920.1809692382815	18.69561576843262	698.4472045898439	-804.8150634765627	143.3115844726563	660.6187744140626	-890.9808349609377	140.2102661132813	589.4690551757814	-940.4453735351565	169.0440063476563	617.2452392578126	-920.5924072265627	230.9936828613282	567.1754150390626	-883.6950683593752	334.8984069824219	425.182830810547	-925.7683105468752	340.4793395996094	427.2723999023439	-838.309020996094	329.1110229492188	335.0155944824219	-894.742370605469	485.7859497070314	504.1676025390626	-844.9477539062502	484.1643981933595	506.6239624023439	-887.448913574219	475.3832397460939	463.498260498047	-944.6609497070315	-286.9007263183594	732.7003173828126	-581.8579101562501	-227.8318176269532	701.2548828125001	-578.3856811523439	-199.8759307861329	717.5310668945314	-582.5513305664064	-217.6885375976563	616.7834472656251	-590.3144531250001	-201.8058166503907	492.2185974121095	-620.8788452148439	-164.9302673339844	497.9991455078126	-731.0359497070314	-225.4865112304688	293.7385559082032	-673.3401489257814	-328.4169616699219	260.1784973144532	-673.7946777343751	-288.4227905273438	237.4656219482422	-677.7172241210939	-286.7719116210938	193.0216217041016	-718.5757446289064	-381.8331604003907	124.0249252319336	-710.4777221679689	-346.4678039550782	145.8296813964844	-791.5828247070315	-454.1273803710939	109.9162673950196	-768.2570800781252	-231.8911743164063	54.42326736450197	-776.411071777344	-236.8142852783204	54.73199844360353	-730.4188232421876	-293.4361877441407	38.53119277954102	-679.6541748046876	-445.5563964843751	1645.267211914063	-742.4113769531251	nan	nan	nan	nan	nan	nan	nan	nan	nan	
178	0.885	-287.4445800781251	1675.077514648438	-621.9366455078126	-418.1588439941407	1650.470092773438	-603.0881958007814	-487.6813964843751	1484.224487304688	-687.2900390625001	-523.7786865234376	1178.518920898438	-721.3169555664064	-411.1671752929689	1499.904296875	-848.627136230469	-249.7153625488282	1469.175048828125	-964.874938964844	-225.9103698730469	1500.752685546875	-933.4554443359377	-180.4329376220703	1480.517211914063	-967.2048339843752	-114.0970993041992	1489.758422851563	-964.637634277344	-107.5050582885742	1418.369140625	-935.661071777344	167.9874725341797	1517.402954101563	-890.253112792969	164.8671417236328	1529.648315429688	-965.5500488281252	248.370346069336	1550.54052734375	-884.5330200195315	-376.4971313476563	1484.1064453125	-534.5445556640626	-210.847885131836	1425.692504882813	-441.3347778320314	-186.0308685302735	1460.651489257813	-468.3772583007814	-142.3008117675782	1425.369262695313	-445.1342163085939	-80.57199859619142	1441.215209960938	-457.3703002929689	-74.06217193603517	1373.51904296875	-497.2596740722657	204.0429840087891	1494.932495117188	-543.1822509765626	204.6988220214844	1486.427490234375	-466.7492675781251	291.7304077148438	1527.975952148438	-534.8334960937501	-359.4956970214844	1029.673217773438	-860.390319824219	-344.7209777832032	998.9248046875002	-638.6350097656251	-538.3256835937501	1033.135131835938	-736.0856933593751	-538.5219726562501	1003.629577636719	-767.7208862304689	-534.3131713867189	996.776062011719	-708.7866821289064	-225.1232147216797	837.1489257812502	-942.4795532226565	-141.5531463623047	824.2808837890627	-932.9320068359377	-120.0602340698242	862.8016357421877	-914.7966918945315	-113.1250839233399	769.6684570312502	-925.2969970703127	-10.16751384735108	705.5261230468751	-920.4664306640627	19.07972717285157	699.0087890625001	-805.1179199218752	143.4500732421875	661.1704101562501	-891.2380981445315	140.0140991210938	589.3206176757814	-940.6469726562502	169.1828002929688	618.2285156250001	-920.6672363281252	231.0415802001954	567.4749145507814	-883.8459472656252	335.1082153320313	425.5960083007814	-925.9020996093752	340.6039733886719	427.6543579101564	-838.3542480468752	329.2246093750001	335.3616333007813	-894.7371826171877	486.0362548828126	504.7338867187501	-845.319030761719	484.6590270996095	507.129364013672	-887.6536254882815	475.5139465332032	463.9303588867189	-945.1066894531252	-286.7981262207032	732.9975585937501	-581.8482055664064	-227.8016357421876	701.4069213867189	-578.5721435546876	-199.7168121337891	717.7426147460939	-582.6490478515626	-217.6463012695313	617.0017089843751	-590.3487548828126	-201.8948211669922	492.3455810546876	-620.9326782226564	-165.0464477539063	498.1345520019532	-731.1447143554689	-225.4497833251954	293.7926940917969	-673.4874877929689	-328.4442443847657	260.2427062988282	-673.9675292968751	-288.4707031250001	237.5292053222657	-677.8439331054689	-286.8420104980469	193.1870117187501	-718.7642211914064	-381.8233337402344	124.0287322998047	-710.4834594726564	-346.5002746582032	145.8391571044922	-791.654968261719	-453.9908142089845	109.6981201171875	-768.3791503906252	-231.9322357177735	54.40190505981447	-776.450622558594	-236.8430938720704	54.81749343872072	-730.5049438476564	-293.4293518066407	38.53487777709962	-679.6865234375001	-444.5098876953126	1645.493774414063	-742.3455810546876	nan	nan	nan	nan	nan	nan	nan	nan	nan	
179	0.89	-287.3828735351563	1675.329711914063	-621.8317260742189	-418.0393371582032	1650.427734375	-603.0352172851564	-487.6909179687501	1484.585815429688	-687.3723754882814	-523.7011718750001	1178.806030273438	-721.3658447265626	-411.0832824707032	1500.236328125	-848.7302856445315	-249.5509643554688	1470.107666015625	-964.871520996094	-225.9838562011719	1501.181396484375	-933.5005493164065	-180.3761444091797	1480.776000976563	-967.215515136719	-114.1743850708008	1490.09619140625	-964.6478271484377	-107.532096862793	1418.666748046875	-935.7827148437502	167.929443359375	1517.69384765625	-890.3203735351565	164.8226776123047	1530.00341796875	-965.5633544921877	248.3671875000001	1550.76123046875	-884.5037841796877	-376.4772033691407	1484.352416992188	-534.5977783203126	-210.6781921386719	1425.531860351563	-441.2507934570314	-185.8068084716797	1461.156494140625	-468.2059631347657	-142.2504119873047	1425.628051757813	-445.1722412109376	-80.54306793212892	1441.6474609375	-457.4449462890626	-73.78315734863283	1374.2890625	-496.7307128906251	204.0490417480469	1495.323608398438	-543.3430175781251	204.8947448730469	1486.98046875	-466.5619506835939	291.7432250976563	1528.317138671875	-534.9502563476564	-359.6191406250001	1029.945678710938	-860.4734497070315	-344.4929809570313	999.299255371094	-638.7907104492189	-538.1065673828126	1033.34521484375	-736.0213012695314	-538.5873413085939	1004.069702148438	-767.6260986328126	-534.1032104492189	996.9456787109377	-708.7338256835939	-225.1265716552735	837.4730224609377	-942.5567016601565	-141.4853973388672	824.674499511719	-933.0338134765627	-119.9981307983399	863.2050781250002	-915.0305786132815	-113.012680053711	770.060241699219	-925.4047851562502	-10.0336275100708	705.9584350585939	-920.6502685546877	19.1681079864502	699.6953125000001	-805.359069824219	143.654052734375	661.6542358398439	-891.4238281250002	140.1244506835938	589.8019409179689	-940.8411254882815	169.1115875244141	618.4385375976564	-921.0643310546877	231.1965637207032	567.9896240234376	-884.0341796875002	335.2290954589844	425.9952392578126	-926.116638183594	340.8064575195313	428.0906677246095	-838.5625610351565	329.3701171875001	335.8091430664063	-894.7756347656252	486.1715698242189	505.1684875488282	-845.6704101562502	484.2696533203126	507.1312866210939	-888.3603515625002	475.7219543457032	464.2744445800782	-945.5589599609377	-286.6735534667969	733.2999877929689	-581.9613647460939	-227.7730255126954	701.5843505859376	-578.7424926757814	-199.5640258789063	717.9199218750001	-582.8502807617189	-217.6475067138672	617.2757568359376	-590.5056152343751	-201.9974670410157	492.500457763672	-621.0807495117189	-165.1562805175782	498.2855834960939	-731.2955932617189	-225.461898803711	293.8239746093751	-673.6804199218751	-328.4461669921876	260.2803649902344	-673.9731445312501	-288.5087585449219	237.4925842285157	-677.9121704101564	-286.8806762695313	193.2565307617188	-718.9281616210939	-381.8052062988282	124.0421829223633	-710.5228881835939	-346.5207824707032	145.8413848876953	-791.7725219726565	-453.961395263672	109.6912841796875	-768.4355468750002	-231.9376983642579	54.39378738403322	-776.4558105468752	-236.8339233398438	54.72674560546876	-730.4756469726564	-293.4425964355469	38.52636337280274	-679.6857299804689	-443.9888000488282	1645.822021484375	-742.3656616210939	nan	nan	nan	nan	nan	nan	nan	nan	nan	
